<svg xmlns="http://www.w3.org/2000/svg" xmlns:xlink="http://www.w3.org/1999/xlink" contentStyleType="text/css" data-diagram-type="DESCRIPTION" height="1059px" preserveAspectRatio="none" style="width:713px;height:1059px;background:#FFFFFF;" version="1.1" viewBox="0 0 713 1059" width="713px" zoomAndPan="magnify"><defs/><g><!--cluster adapter--><g class="cluster" data-entity="adapter" data-source-line="8" data-uid="ent0002" id="cluster_adapter"><path d="M76.57,409.7 L246.0964,409.7 A3.75,3.75 0 0 1 248.5964,412.2 L255.5964,431.9969 L678,431.9969 A2.5,2.5 0 0 1 680.5,434.4969 L680.5,697.2 A2.5,2.5 0 0 1 678,699.7 L76.57,699.7 A2.5,2.5 0 0 1 74.07,697.2 L74.07,412.2 A2.5,2.5 0 0 1 76.57,409.7" fill="none" style="stroke:#000000;stroke-width:1.5;"/><line style="stroke:#000000;stroke-width:1.5;" x1="74.07" x2="255.5964" y1="431.9969" y2="431.9969"/><text fill="#000000" font-family="sans-serif" font-size="14" font-weight="bold" lengthAdjust="spacing" textLength="168.5264" x="78.07" y="424.6951">NATS Events Adapter</text><text fill="#000000" font-family="sans-serif" font-size="14" font-style="italic" lengthAdjust="spacing" textLength="87.5" x="337.535" y="446.992">&#171;Rectangle&#187;</text></g><!--cluster nats_server--><g class="cluster" data-entity="nats_server" data-source-line="16" data-uid="ent0007" id="cluster_nats_server"><path d="M32.84,77.7 L132.9064,77.7 A3.75,3.75 0 0 1 135.4064,80.2 L142.4064,99.9969 L658.77,99.9969 A2.5,2.5 0 0 1 661.27,102.4969 L661.27,383.2 A2.5,2.5 0 0 1 658.77,385.7 L32.84,385.7 A2.5,2.5 0 0 1 30.34,383.2 L30.34,80.2 A2.5,2.5 0 0 1 32.84,77.7" fill="none" style="stroke:#000000;stroke-width:1.5;"/><line style="stroke:#000000;stroke-width:1.5;" x1="30.34" x2="142.4064" y1="99.9969" y2="99.9969"/><text fill="#000000" font-family="sans-serif" font-size="14" font-weight="bold" lengthAdjust="spacing" textLength="99.0664" x="34.34" y="92.6951">NATS Server</text><text fill="#000000" font-family="sans-serif" font-size="14" font-style="italic" lengthAdjust="spacing" textLength="87.5" x="306.055" y="114.992">&#171;Rectangle&#187;</text></g><!--cluster jetstream--><g class="cluster" data-entity="jetstream" data-source-line="17" data-uid="ent0008" id="cluster_jetstream"><path d="M62.34,154.7 C62.34,144.7 142.685,144.7 142.685,144.7 C142.685,144.7 223.03,144.7 223.03,154.7 L223.03,343.7 C223.03,353.7 142.685,353.7 142.685,353.7 C142.685,353.7 62.34,353.7 62.34,343.7 L62.34,154.7" fill="none" style="stroke:#181818;stroke-width:1;"/><path d="M62.34,154.7 C62.34,164.7 142.685,164.7 142.685,164.7 C142.685,164.7 223.03,164.7 223.03,154.7" fill="none" style="stroke:#181818;stroke-width:1;"/><text fill="#000000" font-family="sans-serif" font-size="14" font-weight="bold" lengthAdjust="spacing" textLength="145.7422" x="69.8139" y="179.6951">JetStream Storage</text></g><!--cluster filesystem--><g class="cluster" data-entity="filesystem" data-source-line="24" data-uid="ent0012" id="cluster_filesystem"><path d="M505.5302,811.0186 C509.6605,803.1818 515.5927,802.2359 521.5417,809.0281 C525.8993,801.0553 531.6249,802.1168 536.1183,808.8939 C538.7016,801.6903 544.7999,802.6976 548.7036,807.511 C553.1602,799.6742 559.1909,800.8246 564.1817,806.9174 C568.6476,800.2522 573.2376,799.408 578.5992,805.9389 C582.2062,799.4335 587.3373,800.3369 591.406,805.429 C596.1464,798.814 600.7457,798.7472 606.1368,804.6642 C612.8468,798.2833 617.541,800.5192 621.5213,807.7494 C626.1164,801.5577 631.9278,799.9007 636.4603,807.8156 C640.4068,803.0961 645.2017,801.6967 648.5544,808.4419 C653.1831,800.9666 659.3182,801.7033 663.524,808.874 C672.5328,802.3019 682.6397,803.4257 684.1,816.7 C685.3398,816.3989 685.8447,817.1993 685.5781,818.2946 C692.7319,822.6697 692.4456,828.7666 685.1788,832.7432 C693.5831,836.0125 695.1361,842.8786 687.1834,848.2609 C692.3925,852.5787 692.5144,856.9991 686.5411,860.7414 C694.9597,864.3004 695.0646,870.7961 687.6494,875.5408 C695.6266,879.7266 693.5853,885.801 687.7055,890.0405 C693.6561,894.3869 694.3727,900.6499 687.3168,904.6504 C693.1423,910.1392 692.6692,916.412 685.3242,920.2148 C691.641,924.276 692.3613,931.1198 685.4854,935.3218 C692.0482,940.2337 693.1834,946.6137 684.5642,950.611 C691.9978,960.0612 687.4317,967.1963 677.1,969.7 C678.0207,969.7313 678.6489,970.3116 678.0562,971.2666 C674.6863,978.7131 670.4841,978.2968 664.9295,973.6351 C660.3449,981.8373 653.9472,981.7796 649.2022,973.791 C646.0604,980.9328 640.6187,981.6286 635.6297,975.7108 C632.0164,983.3028 625.7366,984.3489 620.861,976.9548 C618.0233,984.2887 613.4546,985.4985 607.4822,980.3017 C604.5374,986.8441 597.9785,989.3436 592.917,982.6268 C586.9791,989.6045 579.3967,986.9271 576.9506,978.909 C571.9559,984.8504 566.2085,983.171 563.1197,976.7728 C559.5551,983.287 553.3774,982.3721 550.1519,976.42 C544.9799,983.63 539.9255,983.1828 535.8547,975.3719 C531.1825,980.9119 524.1329,979.4433 521.5091,972.9334 C508.1472,982.0625 500.7694,978.0301 498.1,962.7 C499.4043,963.0815 499.6275,963.9879 498.8819,965.0511 C491.1058,960.4583 491.022,954.2101 497.424,948.3776 C491.9361,944.4885 491.0866,939.8616 497.2404,935.8027 C489.0851,931.6316 489.1043,924.5671 495.5171,918.9098 C489.2311,916.8218 486.0449,911.7672 491.8041,906.169 C483.5299,902.5589 483.8539,896.4589 490.0954,891.1927 C483.3857,886.5519 484.7539,879.9142 491.6254,876.708 C485.2375,871.8181 485.5321,864.1191 493.2008,860.6045 C488.5492,855.9898 490.292,850.2047 496.2182,848.1536 C488.0074,842.2307 488.3851,837.4717 497.0495,832.4417 C488.8297,822.0109 492.9167,812.9082 505.1,809.7 C505.8676,809.8239 505.9854,810.4958 505.5302,811.0186" fill="none" style="stroke:#181818;stroke-width:1;"/><text fill="#000000" font-family="sans-serif" font-size="14" font-weight="bold" lengthAdjust="spacing" textLength="91.8477" x="545.1762" y="827.6951">File System</text></g><!--entity file_listener--><g class="entity" data-entity="file_listener" data-source-line="10" data-uid="ent0003" id="entity_file_listener"><rect fill="#F1F1F1" height="36.2969" rx="2.5" ry="2.5" style="stroke:#181818;stroke-width:0.5;" width="105.2236" x="90.07" y="516.55"/><text fill="#000000" font-family="sans-serif" font-size="14" lengthAdjust="spacing" textLength="85.2236" x="100.07" y="539.5451">File Listener</text></g><!--entity monitor--><g class="entity" data-entity="monitor" data-source-line="11" data-uid="ent0004" id="entity_monitor"><rect fill="#F1F1F1" height="36.2969" rx="2.5" ry="2.5" style="stroke:#181818;stroke-width:0.5;" width="73.2178" x="106.08" y="630.55"/><text fill="#000000" font-family="sans-serif" font-size="14" lengthAdjust="spacing" textLength="53.2178" x="116.08" y="653.5451">Monitor</text></g><!--entity config--><g class="entity" data-entity="config" data-source-line="12" data-uid="ent0005" id="entity_config"><rect fill="#F1F1F1" height="36.2969" rx="2.5" ry="2.5" style="stroke:#181818;stroke-width:0.5;" width="114.9443" x="533.63" y="460.55"/><text fill="#000000" font-family="sans-serif" font-size="14" lengthAdjust="spacing" textLength="94.9443" x="543.63" y="483.5451">Configuration</text></g><!--entity telemetry--><g class="entity" data-entity="telemetry" data-source-line="13" data-uid="ent0006" id="entity_telemetry"><rect fill="#F1F1F1" height="36.2969" rx="2.5" ry="2.5" style="stroke:#181818;stroke-width:0.5;" width="146.8066" x="517.7" y="531.55"/><text fill="#000000" font-family="sans-serif" font-size="14" lengthAdjust="spacing" textLength="126.8066" x="527.7" y="554.5451">Telemetry Module</text></g><!--entity nats_broker--><g class="entity" data-entity="nats_broker" data-source-line="21" data-uid="ent0011" id="entity_nats_broker"><rect fill="#F1F1F1" height="36.2969" rx="2.5" ry="2.5" style="stroke:#181818;stroke-width:0.5;" width="108.3408" x="536.93" y="293.55"/><text fill="#000000" font-family="sans-serif" font-size="14" lengthAdjust="spacing" textLength="88.3408" x="546.93" y="316.5451">NATS Broker</text></g><!--entity Streams--><g class="entity" data-entity="Streams" data-source-line="18" data-uid="ent0009" id="entity_Streams"><rect fill="#F1F1F1" height="36.2969" rx="2.5" ry="2.5" style="stroke:#181818;stroke-width:0.5;" width="78.2559" x="103.56" y="293.55"/><text fill="#000000" font-family="sans-serif" font-size="14" lengthAdjust="spacing" textLength="58.2559" x="113.56" y="316.5451">Streams</text></g><!--entity Consumers--><g class="entity" data-entity="Consumers" data-source-line="19" data-uid="ent0010" id="entity_Consumers"><rect fill="#F1F1F1" height="36.2969" rx="2.5" ry="2.5" style="stroke:#181818;stroke-width:0.5;" width="98.6816" x="93.34" y="222.55"/><text fill="#000000" font-family="sans-serif" font-size="14" lengthAdjust="spacing" textLength="78.6816" x="103.34" y="245.5451">Consumers</text></g><!--entity monitored_dir--><g class="entity" data-entity="monitored_dir" data-source-line="25" data-uid="ent0013" id="entity_monitored_dir"><path d="M508.6,836.55 L549.6,836.55 A3.75,3.75 0 0 1 552.1,839.05 L559.1,857.55 L673.6,857.55 A2.5,2.5 0 0 1 676.1,860.05 L676.1,888.3469 A2.5,2.5 0 0 1 673.6,890.8469 L508.6,890.8469 A2.5,2.5 0 0 1 506.1,888.3469 L506.1,839.05 A2.5,2.5 0 0 1 508.6,836.55" fill="#F1F1F1" style="stroke:#181818;stroke-width:0.5;"/><line style="stroke:#181818;stroke-width:0.5;" x1="506.1" x2="559.1" y1="857.55" y2="857.55"/><text fill="#000000" font-family="sans-serif" font-size="14" lengthAdjust="spacing" textLength="140" x="516.1" y="877.5451">Monitored Directory</text></g><!--entity log_file--><g class="entity" data-entity="log_file" data-source-line="26" data-uid="ent0014" id="entity_log_file"><path d="M554.02,928.05 L554.02,959.3469 A2.5,2.5 0 0 0 556.52,961.8469 L625.6675,961.8469 A2.5,2.5 0 0 0 628.1675,959.3469 L628.1675,935.55 L618.1675,925.55 L556.52,925.55 A2.5,2.5 0 0 0 554.02,928.05" fill="#F1F1F1" style="stroke:#181818;stroke-width:0.5;"/><path d="M618.1675,925.55 L618.1675,933.05 A2.5,2.5 0 0 0 620.6675,935.55 L628.1675,935.55" fill="#F1F1F1" style="stroke:#181818;stroke-width:0.5;"/><text fill="#000000" font-family="sans-serif" font-size="14" lengthAdjust="spacing" textLength="54.1475" x="564.02" y="948.5451">Log File</text></g><g class="entity" data-entity="GMN25" data-source-line="44" data-uid="ent0026" id="entity_GMN25"><path d="M482.09,715.44 L482.09,785.9713 L700.1086,785.9713 L700.1086,725.44 L690.1086,715.44 L482.09,715.44" fill="#FEFFDD" style="stroke:#181818;stroke-width:0.5;"/><path d="M690.1086,715.44 L690.1086,725.44 L700.1086,725.44 L690.1086,715.44" fill="#FEFFDD" style="stroke:#181818;stroke-width:1;"/><text fill="#000000" font-family="sans-serif" font-size="13" lengthAdjust="spacing" textLength="164.5884" x="488.09" y="732.5069">Watches directory for file</text><text fill="#000000" font-family="sans-serif" font-size="13" lengthAdjust="spacing" textLength="197.0186" x="488.09" y="747.6397">changes and publishes events</text><text fill="#000000" font-family="sans-serif" font-size="13" lengthAdjust="spacing" textLength="192.207" x="488.09" y="762.7725">to NATS with path, operation,</text><text fill="#000000" font-family="sans-serif" font-size="13" lengthAdjust="spacing" textLength="157.1172" x="488.09" y="777.9053">and file size information</text></g><g class="entity" data-entity="GMN28" data-source-line="51" data-uid="ent0029" id="entity_GMN28"><path d="M480.28,997 L480.28,1052.3984 L701.9167,1052.3984 L701.9167,1007 L691.9167,997 L480.28,997" fill="#FEFFDD" style="stroke:#181818;stroke-width:0.5;"/><path d="M691.9167,997 L691.9167,1007 L701.9167,1007 L691.9167,997" fill="#FEFFDD" style="stroke:#181818;stroke-width:1;"/><text fill="#000000" font-family="sans-serif" font-size="13" lengthAdjust="spacing" textLength="194.3589" x="486.28" y="1014.0669">Subscribes to file events from</text><text fill="#000000" font-family="sans-serif" font-size="13" lengthAdjust="spacing" textLength="200.6367" x="486.28" y="1029.1997">NATS JetStream and logs them</text><text fill="#000000" font-family="sans-serif" font-size="13" lengthAdjust="spacing" textLength="155.0479" x="486.28" y="1044.3325">to a file with timestamp</text></g><g class="entity" data-entity="GMN31" data-source-line="57" data-uid="ent0032" id="entity_GMN31"><path d="M6,6 L6,61.3984 L279.3701,61.3984 L279.3701,16 L269.3701,6 L6,6" fill="#FEFFDD" style="stroke:#181818;stroke-width:0.5;"/><path d="M269.3701,6 L269.3701,16 L279.3701,16 L269.3701,6" fill="#FEFFDD" style="stroke:#181818;stroke-width:1;"/><text fill="#000000" font-family="sans-serif" font-size="13" lengthAdjust="spacing" textLength="252.3701" x="12" y="23.0669">Provides persistent storage for events,</text><text fill="#000000" font-family="sans-serif" font-size="13" lengthAdjust="spacing" textLength="245.8638" x="12" y="38.1997">ensuring delivery even if components</text><text fill="#000000" font-family="sans-serif" font-size="13" lengthAdjust="spacing" textLength="145.6787" x="12" y="53.3325">are temporarily offline</text></g><g class="entity" data-entity="GMN34" data-source-line="63" data-uid="ent0035" id="entity_GMN34"><path d="M475.37,6 L475.37,61.3984 L706.8265,61.3984 L706.8265,16 L696.8265,6 L475.37,6" fill="#FEFFDD" style="stroke:#181818;stroke-width:0.5;"/><path d="M696.8265,6 L696.8265,16 L706.8265,16 L696.8265,6" fill="#FEFFDD" style="stroke:#181818;stroke-width:1;"/><text fill="#000000" font-family="sans-serif" font-size="13" lengthAdjust="spacing" textLength="210.4565" x="481.37" y="23.0669">Provides OpenTelemetry tracing</text><text fill="#000000" font-family="sans-serif" font-size="13" lengthAdjust="spacing" textLength="199.3735" x="481.37" y="38.1997">for monitoring and diagnostics</text><text fill="#000000" font-family="sans-serif" font-size="13" lengthAdjust="spacing" textLength="118.4092" x="481.37" y="53.3325">(work in progress)</text></g><!--link file_listener to config--><g class="link" data-entity-1="file_listener" data-entity-2="config" data-source-line="30" data-uid="lnk15" id="link_file_listener_config"><path d="M195.77,528.17 C280.18,517.58 440.2266,497.4964 527.4866,486.5564" fill="none" id="file_listener-to-config" style="stroke:#181818;stroke-width:1;"/><polygon fill="#181818" points="533.44,485.81,524.0123,482.9607,528.4788,486.432,525.0075,490.8985,533.44,485.81" style="stroke:#181818;stroke-width:1;"/><text fill="#000000" font-family="sans-serif" font-size="13" lengthAdjust="spacing" textLength="126.6992" x="314.37" y="494.7669">reads configuration</text></g><!--link file_listener to monitored_dir--><g class="link" data-entity-1="file_listener" data-entity-2="monitored_dir" data-source-line="31" data-uid="lnk16" id="link_file_listener_monitored_dir"><path d="M195.63,552.23 C224.62,564.66 258.91,584.24 279.37,612.7 C319.05,667.91 264.98,711.2 309.37,762.7 C358.58,819.78 436.6153,843.6019 499.9253,854.3919" fill="none" id="file_listener-to-monitored_dir" style="stroke:#181818;stroke-width:1;"/><polygon fill="#181818" points="505.84,855.4,497.64,849.9448,500.9111,854.56,496.2959,857.8311,505.84,855.4" style="stroke:#181818;stroke-width:1;"/><text fill="#000000" font-family="sans-serif" font-size="13" lengthAdjust="spacing" textLength="134.6084" x="310.37" y="758.7669">watches for changes</text></g><!--link file_listener to nats_broker--><g class="link" data-entity-1="file_listener" data-entity-2="nats_broker" data-source-line="32" data-uid="lnk17" id="link_file_listener_nats_broker"><path d="M160.2,516.32 C188.09,486.37 247.54,427.05 309.37,393.7 C348.7,372.49 460.8135,343.1226 530.6835,325.9426" fill="none" id="file_listener-to-nats_broker" style="stroke:#181818;stroke-width:1;"/><polygon fill="#181818" points="536.51,324.51,526.8152,322.7747,531.6546,325.7039,528.7254,330.5433,536.51,324.51" style="stroke:#181818;stroke-width:1;"/><text fill="#000000" font-family="sans-serif" font-size="13" lengthAdjust="spacing" textLength="109.6812" x="322.87" y="345.7669">publishes events</text></g><!--link file_listener to telemetry--><g class="link" data-entity-1="file_listener" data-entity-2="telemetry" data-source-line="33" data-uid="lnk18" id="link_file_listener_telemetry"><path d="M195.77,536.45 C275.23,539.12 421.0134,544.0182 511.3334,547.0582" fill="none" id="file_listener-to-telemetry" style="stroke:#181818;stroke-width:1;stroke-dasharray:7.0,7.0;"/><polygon fill="#181818" points="517.33,547.26,508.4696,542.9595,512.3328,547.0918,508.2005,550.955,517.33,547.26" style="stroke:#181818;stroke-width:1;"/><text fill="#000000" font-family="sans-serif" font-size="13" lengthAdjust="spacing" textLength="96.7446" x="329.37" y="536.7669">uses (optional)</text></g><!--link monitor to config--><g class="link" data-entity-1="monitor" data-entity-2="config" data-source-line="35" data-uid="lnk19" id="link_monitor_config"><path d="M179.31,648.28 C240.2,645.78 365.43,632.71 445.37,569.7 C467.54,552.22 453.55,531.62 475.37,513.7 C491.79,500.22 507.5169,493.416 527.5069,488.306" fill="none" id="monitor-to-config" style="stroke:#181818;stroke-width:1;"/><polygon fill="#181818" points="533.32,486.82,523.6097,485.1736,528.4758,488.0583,525.591,492.9244,533.32,486.82" style="stroke:#181818;stroke-width:1;"/><text fill="#000000" font-family="sans-serif" font-size="13" lengthAdjust="spacing" textLength="126.6992" x="314.37" y="565.7669">reads configuration</text></g><!--link monitor to nats_broker--><g class="link" data-entity-1="monitor" data-entity-2="nats_broker" data-source-line="36" data-uid="lnk20" id="link_monitor_nats_broker"><path d="M179.6,636.63 C210.3,624.55 253.49,603.06 279.37,570.7 C307.55,535.46 278.84,506.93 309.37,473.7 C353.49,425.69 388.48,450.56 445.37,418.7 C492.26,392.44 536.8915,357.0359 564.1315,334.0859" fill="none" id="monitor-to-nats_broker" style="stroke:#181818;stroke-width:1;"/><polygon fill="#181818" points="568.72,330.22,559.2599,332.9598,564.8962,333.4416,564.4144,339.0779,568.72,330.22" style="stroke:#181818;stroke-width:1;"/><text fill="#000000" font-family="sans-serif" font-size="13" lengthAdjust="spacing" textLength="134.2783" x="310.37" y="414.7669">subscribes to events</text></g><!--link monitor to log_file--><g class="link" data-entity-1="monitor" data-entity-2="log_file" data-source-line="37" data-uid="lnk21" id="link_monitor_log_file"><path d="M150.76,667.28 C169.18,712.98 223.26,831.19 309.37,887.7 C385.61,937.74 490.79,944.81 547.65,944.81" fill="none" id="monitor-to-log_file" style="stroke:#181818;stroke-width:1;"/><polygon fill="#181818" points="553.65,944.81,544.65,940.81,548.65,944.81,544.65,948.81,553.65,944.81" style="stroke:#181818;stroke-width:1;"/><text fill="#000000" font-family="sans-serif" font-size="13" lengthAdjust="spacing" textLength="111.3379" x="321.87" y="883.7669">writes event logs</text></g><!--link monitor to telemetry--><g class="link" data-entity-1="monitor" data-entity-2="telemetry" data-source-line="38" data-uid="lnk22" id="link_monitor_telemetry"><path d="M179.58,656.11 C237.21,666.45 353.25,680.9 445.37,651.7 C497.24,635.26 542.2552,596.9593 567.7552,572.3193" fill="none" id="monitor-to-telemetry" style="stroke:#181818;stroke-width:1;stroke-dasharray:7.0,7.0;"/><polygon fill="#181818" points="572.07,568.15,562.8183,571.5274,568.4744,571.6244,568.3773,577.2804,572.07,568.15" style="stroke:#181818;stroke-width:1;"/><text fill="#000000" font-family="sans-serif" font-size="13" lengthAdjust="spacing" textLength="96.7446" x="329.37" y="647.7669">uses (optional)</text></g><!--link nats_broker to jetstream--><g class="link" data-entity-1="nats_broker" data-entity-2="jetstream" data-source-line="40" data-uid="lnk23" id="link_nats_broker_jetstream"><path d="M554.62,293.13 C525.8,278.64 483.78,258.83 445.37,245.7 C373.66,221.19 353.81,220.91 279.37,206.7 C264.635,203.8875 248.935,201.2481 233.6373,198.867 C231.7251,198.5694 229.8192,198.2758 227.9223,197.9864 C226.9738,197.8417 226.0275,197.698 225.0839,197.5555 C224.612,197.4842 230.0741,198.3054 229.6036,198.2346" fill="none" id="nats_broker-to-jetstream" style="stroke:#181818;stroke-width:1;"/><polygon fill="#181818" points="223.6703,197.3424,231.9755,202.6362,228.6147,198.0859,233.1651,194.7252,223.6703,197.3424" style="stroke:#181818;stroke-width:1;"/><text fill="#000000" font-family="sans-serif" font-size="13" lengthAdjust="spacing" textLength="109.2686" x="322.87" y="208.7669">stores messages</text></g><!--link jetstream to nats_broker--><g class="link" data-entity-1="jetstream" data-entity-2="nats_broker" data-source-line="41" data-uid="lnk24" id="link_jetstream_nats_broker"><path d="M223.628,185.5277 C223.86,185.5634 224.0921,185.5995 224.3242,185.6361 C225.2527,185.7824 226.1817,185.9359 227.1109,186.0968 C230.8276,186.7405 234.5461,187.5033 238.2373,188.4014 C253.0025,191.9938 267.3325,197.75 279.37,206.7 C304.58,225.45 284.15,251.97 309.37,270.7 C375.7,319.96 469.6546,322.6888 530.6846,318.4188" fill="none" id="jetstream-to-nats_broker" style="stroke:#181818;stroke-width:1;"/><polygon fill="#181818" points="536.67,318,527.4128,314.6379,531.6822,318.349,527.9711,322.6184,536.67,318" style="stroke:#181818;stroke-width:1;"/><text fill="#000000" font-family="sans-serif" font-size="13" lengthAdjust="spacing" textLength="120.6118" x="317.37" y="266.7669">delivers messages</text></g><!--link file_listener to GMN25--><g class="link" data-entity-1="file_listener" data-entity-2="GMN25" data-source-line="44" data-uid="lnk27" id="link_file_listener_GMN25"><path d="M191.31,553.24 C219.85,566.32 255.17,586.23 279.37,612.7 C300.84,636.18 284.96,657.29 309.37,677.7 C357.37,717.84 424.91,736.21 481.71,744.49" fill="none" id="file_listener-GMN25" style="stroke:#181818;stroke-width:1;stroke-dasharray:7.0,7.0;"/></g><!--link monitor to GMN28--><g class="link" data-entity-1="monitor" data-entity-2="GMN28" data-source-line="51" data-uid="lnk30" id="link_monitor_GMN28"><path d="M148.66,667.17 C163.6,719.09 213.14,867.47 309.37,943.7 C357.98,982.21 424.18,1002.41 480.09,1013.01" fill="none" id="monitor-GMN28" style="stroke:#181818;stroke-width:1;stroke-dasharray:7.0,7.0;"/></g><!--link jetstream to GMN31--><g class="link" data-entity-1="jetstream" data-entity-2="GMN31" data-source-line="57" data-uid="lnk33" id="link_jetstream_GMN31"><path d="M142.69,144.3034 C142.69,143.9794 142.69,143.6553 142.69,143.3313 C142.69,142.0353 142.69,140.7392 142.69,139.4431 C142.69,134.2588 142.69,129.0744 142.69,123.89 C142.69,103.1525 142.69,82.415 142.69,61.68" fill="none" id="jetstream-GMN31" style="stroke:#181818;stroke-width:1;stroke-dasharray:7.0,7.0;"/></g><!--link telemetry to GMN34--><g class="link" data-entity-1="telemetry" data-entity-2="GMN34" data-source-line="63" data-uid="lnk36" id="link_telemetry_GMN34"><path d="M517.21,552.96 C469.25,550.67 409.85,538.62 377.37,497.2 C276.73,368.84 288.89,267.23 377.37,130.2 C399.56,95.83 437.27,73.57 474.89,59.21" fill="none" id="telemetry-GMN34" style="stroke:#181818;stroke-width:1;stroke-dasharray:7.0,7.0;"/></g><!--SRC=[XLHHQzim47xthxXb3skXBNiPxKO996a26-bQui0OemJ5EjjQRCb8Sais-jzt9zjnadOK_63TVQVlqtSd5PXwy0Qiod8FKbbCl38wSXkbAs552OafAwDH-zXl2mG629qL64Nl9APA8tmVBUFLv6v-ju3tLv_6uzd7NMfqCxfVJXTTTl9vUZc-t6LdN-VJ-6UydDvsWDbiTdKpYQ9A91kH8GnuRvW-4hs3aHILHpi0uK0q_t1zlUW43OT_8m3wViqK2Pqhvr6ZVM1uIf5LqKOOSckqygP9biq_XoT6foghhM0JGZ894SujiS0IlTt2hP5rWI7jks3qVAmwHllOgjN2kvKBwqF5m9Aby68j7DLzGtBP8haUao3QAbJ_Hk-QAAD9IODn3ysADBkwH1lMpwmqq8-jsRId3_Jhi6QPIM5g2OFWKhmbJyf1vv4Boy2JcaAIt47h54gu2TDXx7QmvnhA5KqDutcxmTnam1i7I66o5OUPz0Cii0YskbnLBZhe29oV3rkduGkDc92TyMqhNe4Vy5FLa_19ZdGCOo79oLzyZMJF2ggfwZLbkGh3Y1qLN5mC-mOJl7Q4F34LAnB5QHIr6jwMlmyybE3gjKkiMjFET0rR6VlmpaG-ebM-qyhn7lYcqdrIthMVAPB0Db93qJd1hlMvbt8b5egcU0yTQUEnVJzC-kAc_MZR8hlX2GqAKm5Tdq1e-R8Nm8Q4KNvIFeTA-FmCJ8MDfMUKvx9WZLD_49IcdSl6RwGCwpfMrr_r-C3ti4l32war9G42StyXcOij1vzZsMWJJLbGvnKPuaLP7LElZVUcPEwThLHzRysZaiHDnt71B1_QmAy7-zD8uJCYNMwhTDOvlmqvK6d_CBDLmY8D00MiiAhO4bzQq1FxVpNzmxMdvgv2tJzpteg4cCDRO3lhM0fx8PN8j75U9Kn_ycJiXZe0bJKP3PCxtJ7_0m00]--></g></svg>